<svg xmlns="http://www.w3.org/2000/svg" viewBox="-3 -16 1399 374">
  <path fill="#9c1623" fill-rule="evenodd" d="M113.0 20.0 L100.2 23.0 L83.0 32.4 L70.5 46.0 L63.6 60.0 L60.8 68.0 L50.8 119.0 L21.0 255.0 L21.0 259.0 L23.0 260.6 L94.0 261.3 L99.0 260.5 L100.8 259.0 L107.3 228.0 L109.0 225.0 L138.2 84.0 L141.1 77.0 L147.0 71.5 L158.0 67.9 L314.0 67.9 L319.5 66.0 L328.6 24.0 L328.4 21.0 L327.0 19.7 L321.0 20.5 Z M150.0 115.8 L146.3 120.0 L138.2 157.0 L138.1 163.0 L142.0 164.9 L291.0 165.0 L297.6 164.0 L299.4 162.0 L308.1 121.0 L307.2 117.0 L305.0 116.0 L155.0 116.6 Z M364.9 20.0 L362.5 20.7 L361.3 22.6 L357.3 39.4 L345.9 96.8 L340.5 118.7 L339.6 126.8 L336.5 138.7 L331.8 163.7 L333.1 164.5 L339.3 164.7 L497.2 165.2 L502.2 168.6 L504.3 171.7 L505.3 175.5 L504.9 181.1 L501.9 196.7 L499.7 202.3 L496.8 206.7 L488.5 212.1 L482.9 213.2 L321.8 213.4 L320.4 215.4 L317.3 228.5 L311.8 257.9 L310.8 259.7 L311.2 260.9 L314.3 261.5 L526.6 261.3 L536.6 258.6 L546.5 254.5 L556.5 248.0 L567.1 237.4 L573.4 227.0 L577.1 218.3 L581.3 200.4 L589.7 158.6 L589.8 151.8 L588.4 144.3 L586.5 138.7 L582.1 131.0 L577.1 125.8 L569.1 120.6 L562.1 117.9 L552.8 116.3 L423.0 116.0 L422.3 115.6 L422.4 113.1 L430.5 74.4 L432.2 68.7 L434.8 67.8 L608.3 67.8 L609.5 66.9 L611.3 59.4 L619.0 22.6 L618.4 20.7 L615.2 20.1 Z"/>
  <path fill="#1d1d1b" fill-rule="evenodd" d="M730.6 264.9 Q685.0 264.9 661.0 248.8 Q637.1 232.6 632.3 199.1 L681.7 190.7 Q685.3 209.7 697.7 218.4 Q710.1 227.1 734.0 227.1 Q793.1 227.1 793.1 193.1 Q793.1 179.4 782.8 171.4 Q772.5 163.5 742.1 155.8 Q710.6 147.4 695.5 138.3 Q680.3 129.3 672.4 116.2 Q664.4 103.1 664.4 84.1 Q664.4 53.9 691.3 35.4 Q718.1 16.9 762.4 16.9 Q803.1 16.9 827.8 31.7 Q852.4 46.5 858.1 74.9 L808.8 86.4 Q805.0 71.0 792.5 61.8 Q779.9 52.7 759.7 52.7 Q738.5 52.7 726.3 60.6 Q714.2 68.6 714.2 82.4 Q714.2 90.5 718.7 96.1 Q723.1 101.7 731.7 105.9 Q740.2 110.1 765.5 117.0 Q792.7 124.5 805.7 131.1 Q818.7 137.7 826.5 145.9 Q834.3 154.1 838.4 164.7 Q842.5 175.3 842.5 189.1 Q842.5 226.1 814.1 245.5 Q785.7 264.9 730.6 264.9 Z M909.9 43.1 L916.9 7.7 L965.0 7.7 L957.9 43.1 Z M867.6 261.5 L903.6 76.4 L951.6 76.4 L915.5 261.5 Z M1032.7 334.2 Q998.7 334.2 980.3 322.4 Q962.0 310.6 957.8 285.8 L1006.2 280.7 Q1010.8 302.4 1038.3 302.4 Q1057.1 302.4 1067.6 292.3 Q1078.0 282.2 1083.8 256.9 Q1087.3 240.5 1089.1 227.1 L1088.8 227.1 Q1078.0 242.3 1069.9 249.0 Q1061.8 255.7 1051.6 259.3 Q1041.4 262.9 1028.2 262.9 Q1001.7 262.9 985.9 245.8 Q970.1 228.7 970.1 200.6 Q970.1 166.2 980.9 134.7 Q991.8 103.1 1010.9 88.1 Q1030.0 73.2 1059.2 73.2 Q1079.4 73.2 1093.9 82.8 Q1108.5 92.3 1113.1 108.8 L1113.4 108.8 Q1114.4 103.8 1117.6 90.8 Q1120.8 77.8 1121.6 76.4 L1167.0 76.4 L1163.7 90.6 L1158.6 115.6 L1130.4 259.8 Q1122.3 299.6 1099.2 316.9 Q1076.1 334.2 1032.7 334.2 Z M1103.7 144.2 Q1103.7 126.4 1094.8 116.2 Q1085.9 106.0 1069.8 106.0 Q1056.8 106.0 1048.3 111.5 Q1039.9 117.0 1034.0 129.2 Q1028.1 141.4 1024.2 161.4 Q1020.4 181.3 1020.4 193.8 Q1020.4 227.8 1050.0 227.8 Q1065.2 227.8 1077.7 216.3 Q1090.2 204.9 1096.9 185.1 Q1103.7 165.4 1103.7 144.2 Z M1299.2 261.5 L1319.4 159.7 Q1323.8 138.5 1323.8 131.5 Q1323.8 109.4 1297.8 109.4 Q1280.5 109.4 1265.8 123.5 Q1251.1 137.5 1247.3 157.8 L1227.2 261.5 L1178.9 261.5 L1207.3 115.9 Q1210.1 102.4 1213.8 76.4 L1259.7 76.4 Q1259.7 78.0 1258.0 90.8 Q1256.4 103.6 1255.6 108.1 L1256.1 108.1 Q1268.9 90.3 1284.4 81.7 Q1299.9 73.2 1319.9 73.2 Q1345.9 73.2 1359.0 85.7 Q1372.2 98.2 1372.2 121.8 Q1372.2 126.0 1371.0 135.4 Q1369.8 144.7 1368.6 149.8 L1346.9 261.5 Z"/>
</svg>
